<mxfile host="app.diagrams.net" modified="2021-03-25T16:13:40.570Z" agent="5.0 (Windows)" etag="kiVRmFzeuEzXMkXbmXAa" version="14.5.1" type="github">
  <diagram id="C5RBs43oDa-KdzZeNtuy" name="Page-1">
    <mxGraphModel dx="1576" dy="977" grid="0" gridSize="10" guides="1" tooltips="1" connect="1" arrows="1" fold="1" page="0" pageScale="1" pageWidth="827" pageHeight="1169" math="0" shadow="0">
      <root>
        <mxCell id="WIyWlLk6GJQsqaUBKTNV-0" />
        <mxCell id="WIyWlLk6GJQsqaUBKTNV-1" parent="WIyWlLk6GJQsqaUBKTNV-0" />
        <mxCell id="wYmPSbE5QTE6Oiyz23wc-6" value="" style="edgeStyle=orthogonalEdgeStyle;rounded=0;orthogonalLoop=1;jettySize=auto;html=1;" edge="1" parent="WIyWlLk6GJQsqaUBKTNV-1" source="wYmPSbE5QTE6Oiyz23wc-2" target="wYmPSbE5QTE6Oiyz23wc-5">
          <mxGeometry relative="1" as="geometry" />
        </mxCell>
        <mxCell id="wYmPSbE5QTE6Oiyz23wc-2" value="Start" style="strokeWidth=2;html=1;shape=mxgraph.flowchart.terminator;whiteSpace=wrap;" vertex="1" parent="WIyWlLk6GJQsqaUBKTNV-1">
          <mxGeometry x="200" y="120" width="100" height="60" as="geometry" />
        </mxCell>
        <mxCell id="wYmPSbE5QTE6Oiyz23wc-10" value="" style="edgeStyle=orthogonalEdgeStyle;rounded=0;orthogonalLoop=1;jettySize=auto;html=1;" edge="1" parent="WIyWlLk6GJQsqaUBKTNV-1" source="wYmPSbE5QTE6Oiyz23wc-5" target="wYmPSbE5QTE6Oiyz23wc-9">
          <mxGeometry relative="1" as="geometry" />
        </mxCell>
        <mxCell id="wYmPSbE5QTE6Oiyz23wc-11" value="Error" style="edgeLabel;html=1;align=center;verticalAlign=middle;resizable=0;points=[];" vertex="1" connectable="0" parent="wYmPSbE5QTE6Oiyz23wc-10">
          <mxGeometry x="0.3265" y="-1" relative="1" as="geometry">
            <mxPoint x="-16.29" y="-11" as="offset" />
          </mxGeometry>
        </mxCell>
        <mxCell id="wYmPSbE5QTE6Oiyz23wc-13" value="" style="edgeStyle=orthogonalEdgeStyle;rounded=0;orthogonalLoop=1;jettySize=auto;html=1;" edge="1" parent="WIyWlLk6GJQsqaUBKTNV-1" source="wYmPSbE5QTE6Oiyz23wc-5" target="wYmPSbE5QTE6Oiyz23wc-12">
          <mxGeometry relative="1" as="geometry" />
        </mxCell>
        <mxCell id="wYmPSbE5QTE6Oiyz23wc-5" value="Setup GPIO" style="whiteSpace=wrap;html=1;strokeWidth=2;" vertex="1" parent="WIyWlLk6GJQsqaUBKTNV-1">
          <mxGeometry x="190" y="260" width="120" height="60" as="geometry" />
        </mxCell>
        <mxCell id="wYmPSbE5QTE6Oiyz23wc-9" value="Abort" style="strokeWidth=2;html=1;shape=mxgraph.flowchart.terminator;whiteSpace=wrap;" vertex="1" parent="WIyWlLk6GJQsqaUBKTNV-1">
          <mxGeometry x="380" y="260" width="100" height="60" as="geometry" />
        </mxCell>
        <mxCell id="wYmPSbE5QTE6Oiyz23wc-17" value="" style="edgeStyle=orthogonalEdgeStyle;rounded=0;orthogonalLoop=1;jettySize=auto;html=1;" edge="1" parent="WIyWlLk6GJQsqaUBKTNV-1" source="wYmPSbE5QTE6Oiyz23wc-12" target="wYmPSbE5QTE6Oiyz23wc-16">
          <mxGeometry relative="1" as="geometry" />
        </mxCell>
        <mxCell id="wYmPSbE5QTE6Oiyz23wc-18" value="Error" style="edgeLabel;html=1;align=center;verticalAlign=middle;resizable=0;points=[];" vertex="1" connectable="0" parent="wYmPSbE5QTE6Oiyz23wc-17">
          <mxGeometry x="0.2449" relative="1" as="geometry">
            <mxPoint x="-13.43" y="-10" as="offset" />
          </mxGeometry>
        </mxCell>
        <mxCell id="wYmPSbE5QTE6Oiyz23wc-20" value="" style="edgeStyle=orthogonalEdgeStyle;rounded=0;orthogonalLoop=1;jettySize=auto;html=1;" edge="1" parent="WIyWlLk6GJQsqaUBKTNV-1" source="wYmPSbE5QTE6Oiyz23wc-12" target="wYmPSbE5QTE6Oiyz23wc-19">
          <mxGeometry relative="1" as="geometry" />
        </mxCell>
        <mxCell id="wYmPSbE5QTE6Oiyz23wc-12" value="Initialize PCA PWM driver" style="whiteSpace=wrap;html=1;strokeWidth=2;" vertex="1" parent="WIyWlLk6GJQsqaUBKTNV-1">
          <mxGeometry x="190" y="400" width="120" height="60" as="geometry" />
        </mxCell>
        <mxCell id="wYmPSbE5QTE6Oiyz23wc-16" value="Abort" style="strokeWidth=2;html=1;shape=mxgraph.flowchart.terminator;whiteSpace=wrap;" vertex="1" parent="WIyWlLk6GJQsqaUBKTNV-1">
          <mxGeometry x="380" y="400" width="100" height="60" as="geometry" />
        </mxCell>
        <mxCell id="wYmPSbE5QTE6Oiyz23wc-22" value="" style="edgeStyle=orthogonalEdgeStyle;rounded=0;orthogonalLoop=1;jettySize=auto;html=1;" edge="1" parent="WIyWlLk6GJQsqaUBKTNV-1" source="wYmPSbE5QTE6Oiyz23wc-19" target="wYmPSbE5QTE6Oiyz23wc-21">
          <mxGeometry relative="1" as="geometry" />
        </mxCell>
        <mxCell id="wYmPSbE5QTE6Oiyz23wc-19" value="Get command line options" style="whiteSpace=wrap;html=1;strokeWidth=2;" vertex="1" parent="WIyWlLk6GJQsqaUBKTNV-1">
          <mxGeometry x="190" y="540" width="120" height="60" as="geometry" />
        </mxCell>
        <mxCell id="wYmPSbE5QTE6Oiyz23wc-24" value="" style="edgeStyle=orthogonalEdgeStyle;rounded=0;orthogonalLoop=1;jettySize=auto;html=1;" edge="1" parent="WIyWlLk6GJQsqaUBKTNV-1" source="wYmPSbE5QTE6Oiyz23wc-21" target="wYmPSbE5QTE6Oiyz23wc-23">
          <mxGeometry relative="1" as="geometry" />
        </mxCell>
        <mxCell id="wYmPSbE5QTE6Oiyz23wc-25" value="Error" style="edgeLabel;html=1;align=center;verticalAlign=middle;resizable=0;points=[];" vertex="1" connectable="0" parent="wYmPSbE5QTE6Oiyz23wc-24">
          <mxGeometry x="0.3265" relative="1" as="geometry">
            <mxPoint x="-16.29" y="-10" as="offset" />
          </mxGeometry>
        </mxCell>
        <mxCell id="wYmPSbE5QTE6Oiyz23wc-27" value="" style="edgeStyle=orthogonalEdgeStyle;rounded=0;orthogonalLoop=1;jettySize=auto;html=1;" edge="1" parent="WIyWlLk6GJQsqaUBKTNV-1" source="wYmPSbE5QTE6Oiyz23wc-21" target="wYmPSbE5QTE6Oiyz23wc-26">
          <mxGeometry relative="1" as="geometry" />
        </mxCell>
        <mxCell id="wYmPSbE5QTE6Oiyz23wc-21" value="Open log file" style="whiteSpace=wrap;html=1;strokeWidth=2;" vertex="1" parent="WIyWlLk6GJQsqaUBKTNV-1">
          <mxGeometry x="190" y="680" width="120" height="60" as="geometry" />
        </mxCell>
        <mxCell id="wYmPSbE5QTE6Oiyz23wc-23" value="Abort" style="strokeWidth=2;html=1;shape=mxgraph.flowchart.terminator;whiteSpace=wrap;" vertex="1" parent="WIyWlLk6GJQsqaUBKTNV-1">
          <mxGeometry x="380" y="680" width="100" height="60" as="geometry" />
        </mxCell>
        <mxCell id="wYmPSbE5QTE6Oiyz23wc-30" value="" style="edgeStyle=orthogonalEdgeStyle;rounded=0;orthogonalLoop=1;jettySize=auto;html=1;entryX=0;entryY=0.5;entryDx=0;entryDy=0;" edge="1" parent="WIyWlLk6GJQsqaUBKTNV-1" source="wYmPSbE5QTE6Oiyz23wc-26" target="wYmPSbE5QTE6Oiyz23wc-35">
          <mxGeometry relative="1" as="geometry">
            <mxPoint x="380" y="850" as="targetPoint" />
          </mxGeometry>
        </mxCell>
        <mxCell id="wYmPSbE5QTE6Oiyz23wc-31" value="Error" style="edgeLabel;html=1;align=center;verticalAlign=middle;resizable=0;points=[];" vertex="1" connectable="0" parent="wYmPSbE5QTE6Oiyz23wc-30">
          <mxGeometry x="-0.2471" y="1" relative="1" as="geometry">
            <mxPoint x="7.24" y="-9" as="offset" />
          </mxGeometry>
        </mxCell>
        <mxCell id="wYmPSbE5QTE6Oiyz23wc-37" value="" style="edgeStyle=orthogonalEdgeStyle;rounded=0;orthogonalLoop=1;jettySize=auto;html=1;" edge="1" parent="WIyWlLk6GJQsqaUBKTNV-1" source="wYmPSbE5QTE6Oiyz23wc-26" target="wYmPSbE5QTE6Oiyz23wc-36">
          <mxGeometry relative="1" as="geometry" />
        </mxCell>
        <mxCell id="wYmPSbE5QTE6Oiyz23wc-26" value="Initialize SBUS driver" style="whiteSpace=wrap;html=1;strokeWidth=2;" vertex="1" parent="WIyWlLk6GJQsqaUBKTNV-1">
          <mxGeometry x="190" y="820" width="120" height="60" as="geometry" />
        </mxCell>
        <mxCell id="wYmPSbE5QTE6Oiyz23wc-28" value="Abort" style="strokeWidth=2;html=1;shape=mxgraph.flowchart.terminator;whiteSpace=wrap;" vertex="1" parent="WIyWlLk6GJQsqaUBKTNV-1">
          <mxGeometry x="570" y="820" width="100" height="60" as="geometry" />
        </mxCell>
        <mxCell id="wYmPSbE5QTE6Oiyz23wc-32" value="" style="edgeStyle=orthogonalEdgeStyle;rounded=0;orthogonalLoop=1;jettySize=auto;html=1;exitX=1;exitY=0.5;exitDx=0;exitDy=0;" edge="1" parent="WIyWlLk6GJQsqaUBKTNV-1" source="wYmPSbE5QTE6Oiyz23wc-35" target="wYmPSbE5QTE6Oiyz23wc-28">
          <mxGeometry relative="1" as="geometry">
            <mxPoint x="500" y="850" as="sourcePoint" />
          </mxGeometry>
        </mxCell>
        <mxCell id="wYmPSbE5QTE6Oiyz23wc-33" value="None found" style="edgeLabel;html=1;align=center;verticalAlign=middle;resizable=0;points=[];" vertex="1" connectable="0" parent="wYmPSbE5QTE6Oiyz23wc-32">
          <mxGeometry x="-0.2284" y="1" relative="1" as="geometry">
            <mxPoint x="8.97" y="-9" as="offset" />
          </mxGeometry>
        </mxCell>
        <mxCell id="wYmPSbE5QTE6Oiyz23wc-35" value="&lt;div&gt;Look for FrSky &lt;br&gt;&lt;/div&gt;&lt;div&gt;SBUS port on other serial ports&lt;/div&gt;" style="whiteSpace=wrap;html=1;strokeWidth=2;" vertex="1" parent="WIyWlLk6GJQsqaUBKTNV-1">
          <mxGeometry x="380" y="820" width="120" height="60" as="geometry" />
        </mxCell>
        <mxCell id="wYmPSbE5QTE6Oiyz23wc-44" value="" style="edgeStyle=orthogonalEdgeStyle;rounded=0;orthogonalLoop=1;jettySize=auto;html=1;dashed=1;exitX=0.75;exitY=1;exitDx=0;exitDy=0;" edge="1" parent="WIyWlLk6GJQsqaUBKTNV-1" source="wYmPSbE5QTE6Oiyz23wc-36" target="wYmPSbE5QTE6Oiyz23wc-43">
          <mxGeometry relative="1" as="geometry">
            <Array as="points">
              <mxPoint x="280" y="1060" />
              <mxPoint x="690" y="1060" />
              <mxPoint x="690" y="150" />
            </Array>
          </mxGeometry>
        </mxCell>
        <mxCell id="wYmPSbE5QTE6Oiyz23wc-51" value="Packet received" style="edgeLabel;html=1;align=center;verticalAlign=middle;resizable=0;points=[];" vertex="1" connectable="0" parent="wYmPSbE5QTE6Oiyz23wc-44">
          <mxGeometry x="-0.3442" relative="1" as="geometry">
            <mxPoint x="-140" y="2.8599999999999994" as="offset" />
          </mxGeometry>
        </mxCell>
        <mxCell id="wYmPSbE5QTE6Oiyz23wc-46" value="" style="edgeStyle=orthogonalEdgeStyle;rounded=0;orthogonalLoop=1;jettySize=auto;html=1;" edge="1" parent="WIyWlLk6GJQsqaUBKTNV-1" source="wYmPSbE5QTE6Oiyz23wc-36" target="wYmPSbE5QTE6Oiyz23wc-45">
          <mxGeometry relative="1" as="geometry" />
        </mxCell>
        <mxCell id="wYmPSbE5QTE6Oiyz23wc-47" value="Error" style="edgeLabel;html=1;align=center;verticalAlign=middle;resizable=0;points=[];" vertex="1" connectable="0" parent="wYmPSbE5QTE6Oiyz23wc-46">
          <mxGeometry x="-0.2656" y="-1" relative="1" as="geometry">
            <mxPoint x="4.48" y="-11" as="offset" />
          </mxGeometry>
        </mxCell>
        <mxCell id="wYmPSbE5QTE6Oiyz23wc-36" value="Read from SBUS port" style="whiteSpace=wrap;html=1;strokeWidth=2;" vertex="1" parent="WIyWlLk6GJQsqaUBKTNV-1">
          <mxGeometry x="190" y="960" width="120" height="60" as="geometry" />
        </mxCell>
        <mxCell id="wYmPSbE5QTE6Oiyz23wc-53" value="" style="edgeStyle=orthogonalEdgeStyle;rounded=0;orthogonalLoop=1;jettySize=auto;html=1;" edge="1" parent="WIyWlLk6GJQsqaUBKTNV-1" source="wYmPSbE5QTE6Oiyz23wc-43" target="wYmPSbE5QTE6Oiyz23wc-52">
          <mxGeometry relative="1" as="geometry" />
        </mxCell>
        <mxCell id="wYmPSbE5QTE6Oiyz23wc-43" value="Set actuator speed" style="whiteSpace=wrap;html=1;strokeWidth=2;" vertex="1" parent="WIyWlLk6GJQsqaUBKTNV-1">
          <mxGeometry x="740" y="120" width="120" height="60" as="geometry" />
        </mxCell>
        <mxCell id="wYmPSbE5QTE6Oiyz23wc-45" value="Abort" style="strokeWidth=2;html=1;shape=mxgraph.flowchart.terminator;whiteSpace=wrap;" vertex="1" parent="WIyWlLk6GJQsqaUBKTNV-1">
          <mxGeometry x="380" y="960" width="100" height="60" as="geometry" />
        </mxCell>
        <mxCell id="wYmPSbE5QTE6Oiyz23wc-50" style="edgeStyle=orthogonalEdgeStyle;rounded=0;orthogonalLoop=1;jettySize=auto;html=1;exitX=0.25;exitY=1;exitDx=0;exitDy=0;entryX=0;entryY=0.5;entryDx=0;entryDy=0;" edge="1" parent="WIyWlLk6GJQsqaUBKTNV-1" source="wYmPSbE5QTE6Oiyz23wc-36" target="wYmPSbE5QTE6Oiyz23wc-36">
          <mxGeometry relative="1" as="geometry">
            <Array as="points">
              <mxPoint x="220" y="1060" />
              <mxPoint x="120" y="1060" />
              <mxPoint x="120" y="990" />
            </Array>
          </mxGeometry>
        </mxCell>
        <mxCell id="wYmPSbE5QTE6Oiyz23wc-55" value="" style="edgeStyle=orthogonalEdgeStyle;rounded=0;orthogonalLoop=1;jettySize=auto;html=1;" edge="1" parent="WIyWlLk6GJQsqaUBKTNV-1" source="wYmPSbE5QTE6Oiyz23wc-52" target="wYmPSbE5QTE6Oiyz23wc-54">
          <mxGeometry relative="1" as="geometry" />
        </mxCell>
        <mxCell id="wYmPSbE5QTE6Oiyz23wc-52" value="Set wheel speed" style="whiteSpace=wrap;html=1;strokeWidth=2;" vertex="1" parent="WIyWlLk6GJQsqaUBKTNV-1">
          <mxGeometry x="740" y="260" width="120" height="60" as="geometry" />
        </mxCell>
        <mxCell id="wYmPSbE5QTE6Oiyz23wc-57" value="" style="edgeStyle=orthogonalEdgeStyle;rounded=0;orthogonalLoop=1;jettySize=auto;html=1;" edge="1" parent="WIyWlLk6GJQsqaUBKTNV-1" source="wYmPSbE5QTE6Oiyz23wc-54" target="wYmPSbE5QTE6Oiyz23wc-56">
          <mxGeometry relative="1" as="geometry" />
        </mxCell>
        <mxCell id="wYmPSbE5QTE6Oiyz23wc-54" value="Set wheel direction" style="whiteSpace=wrap;html=1;strokeWidth=2;" vertex="1" parent="WIyWlLk6GJQsqaUBKTNV-1">
          <mxGeometry x="740" y="400" width="120" height="60" as="geometry" />
        </mxCell>
        <mxCell id="wYmPSbE5QTE6Oiyz23wc-59" value="" style="edgeStyle=orthogonalEdgeStyle;rounded=0;orthogonalLoop=1;jettySize=auto;html=1;" edge="1" parent="WIyWlLk6GJQsqaUBKTNV-1" source="wYmPSbE5QTE6Oiyz23wc-56" target="wYmPSbE5QTE6Oiyz23wc-58">
          <mxGeometry relative="1" as="geometry" />
        </mxCell>
        <mxCell id="wYmPSbE5QTE6Oiyz23wc-56" value="Set actuator/drill direction" style="whiteSpace=wrap;html=1;strokeWidth=2;" vertex="1" parent="WIyWlLk6GJQsqaUBKTNV-1">
          <mxGeometry x="740" y="540" width="120" height="60" as="geometry" />
        </mxCell>
        <mxCell id="wYmPSbE5QTE6Oiyz23wc-64" value="" style="edgeStyle=orthogonalEdgeStyle;rounded=0;orthogonalLoop=1;jettySize=auto;html=1;" edge="1" parent="WIyWlLk6GJQsqaUBKTNV-1" source="wYmPSbE5QTE6Oiyz23wc-58" target="wYmPSbE5QTE6Oiyz23wc-63">
          <mxGeometry relative="1" as="geometry" />
        </mxCell>
        <mxCell id="wYmPSbE5QTE6Oiyz23wc-58" value="Set drill speed" style="whiteSpace=wrap;html=1;strokeWidth=2;" vertex="1" parent="WIyWlLk6GJQsqaUBKTNV-1">
          <mxGeometry x="740" y="680" width="120" height="60" as="geometry" />
        </mxCell>
        <mxCell id="wYmPSbE5QTE6Oiyz23wc-62" value="" style="edgeStyle=orthogonalEdgeStyle;rounded=0;orthogonalLoop=1;jettySize=auto;html=1;" edge="1" parent="WIyWlLk6GJQsqaUBKTNV-1" source="wYmPSbE5QTE6Oiyz23wc-60" target="wYmPSbE5QTE6Oiyz23wc-61">
          <mxGeometry relative="1" as="geometry" />
        </mxCell>
        <mxCell id="wYmPSbE5QTE6Oiyz23wc-60" value="Interrupt received (system shutdown)" style="whiteSpace=wrap;html=1;strokeWidth=2;" vertex="1" parent="WIyWlLk6GJQsqaUBKTNV-1">
          <mxGeometry x="10" y="120" width="120" height="60" as="geometry" />
        </mxCell>
        <mxCell id="wYmPSbE5QTE6Oiyz23wc-61" value="Abort" style="strokeWidth=2;html=1;shape=mxgraph.flowchart.terminator;whiteSpace=wrap;" vertex="1" parent="WIyWlLk6GJQsqaUBKTNV-1">
          <mxGeometry x="20" y="260" width="100" height="60" as="geometry" />
        </mxCell>
        <mxCell id="wYmPSbE5QTE6Oiyz23wc-66" value="" style="edgeStyle=orthogonalEdgeStyle;rounded=0;orthogonalLoop=1;jettySize=auto;html=1;" edge="1" parent="WIyWlLk6GJQsqaUBKTNV-1" source="wYmPSbE5QTE6Oiyz23wc-63" target="wYmPSbE5QTE6Oiyz23wc-65">
          <mxGeometry relative="1" as="geometry">
            <Array as="points">
              <mxPoint x="930" y="850" />
              <mxPoint x="930" y="180" />
            </Array>
          </mxGeometry>
        </mxCell>
        <mxCell id="wYmPSbE5QTE6Oiyz23wc-63" value="Read from Arduino serial" style="whiteSpace=wrap;html=1;strokeWidth=2;" vertex="1" parent="WIyWlLk6GJQsqaUBKTNV-1">
          <mxGeometry x="740" y="820" width="120" height="60" as="geometry" />
        </mxCell>
        <mxCell id="wYmPSbE5QTE6Oiyz23wc-68" value="" style="edgeStyle=orthogonalEdgeStyle;rounded=0;orthogonalLoop=1;jettySize=auto;html=1;" edge="1" parent="WIyWlLk6GJQsqaUBKTNV-1" source="wYmPSbE5QTE6Oiyz23wc-65" target="wYmPSbE5QTE6Oiyz23wc-67">
          <mxGeometry relative="1" as="geometry" />
        </mxCell>
        <mxCell id="wYmPSbE5QTE6Oiyz23wc-69" value="No" style="edgeLabel;html=1;align=center;verticalAlign=middle;resizable=0;points=[];" vertex="1" connectable="0" parent="wYmPSbE5QTE6Oiyz23wc-68">
          <mxGeometry x="-0.25" y="2" relative="1" as="geometry">
            <mxPoint y="-8" as="offset" />
          </mxGeometry>
        </mxCell>
        <mxCell id="wYmPSbE5QTE6Oiyz23wc-71" value="" style="edgeStyle=orthogonalEdgeStyle;rounded=0;orthogonalLoop=1;jettySize=auto;html=1;" edge="1" parent="WIyWlLk6GJQsqaUBKTNV-1" source="wYmPSbE5QTE6Oiyz23wc-65" target="wYmPSbE5QTE6Oiyz23wc-70">
          <mxGeometry relative="1" as="geometry" />
        </mxCell>
        <mxCell id="wYmPSbE5QTE6Oiyz23wc-84" value="Yes" style="edgeLabel;html=1;align=center;verticalAlign=middle;resizable=0;points=[];" vertex="1" connectable="0" parent="wYmPSbE5QTE6Oiyz23wc-71">
          <mxGeometry x="-0.275" relative="1" as="geometry">
            <mxPoint as="offset" />
          </mxGeometry>
        </mxCell>
        <mxCell id="wYmPSbE5QTE6Oiyz23wc-65" value="Enough data received?" style="rhombus;whiteSpace=wrap;html=1;strokeWidth=2;" vertex="1" parent="WIyWlLk6GJQsqaUBKTNV-1">
          <mxGeometry x="990" y="120" width="120" height="120" as="geometry" />
        </mxCell>
        <mxCell id="wYmPSbE5QTE6Oiyz23wc-67" value="Exit function, wait for next SBUS packet" style="whiteSpace=wrap;html=1;strokeWidth=2;" vertex="1" parent="WIyWlLk6GJQsqaUBKTNV-1">
          <mxGeometry x="1190" y="150" width="120" height="60" as="geometry" />
        </mxCell>
        <mxCell id="wYmPSbE5QTE6Oiyz23wc-76" value="" style="edgeStyle=orthogonalEdgeStyle;rounded=0;orthogonalLoop=1;jettySize=auto;html=1;" edge="1" parent="WIyWlLk6GJQsqaUBKTNV-1" source="wYmPSbE5QTE6Oiyz23wc-70" target="wYmPSbE5QTE6Oiyz23wc-75">
          <mxGeometry relative="1" as="geometry" />
        </mxCell>
        <mxCell id="wYmPSbE5QTE6Oiyz23wc-83" value="Yes" style="edgeLabel;html=1;align=center;verticalAlign=middle;resizable=0;points=[];" vertex="1" connectable="0" parent="wYmPSbE5QTE6Oiyz23wc-76">
          <mxGeometry x="-0.3036" y="-2" relative="1" as="geometry">
            <mxPoint as="offset" />
          </mxGeometry>
        </mxCell>
        <mxCell id="wYmPSbE5QTE6Oiyz23wc-70" value="At least 1 line received?" style="rhombus;whiteSpace=wrap;html=1;strokeWidth=2;" vertex="1" parent="WIyWlLk6GJQsqaUBKTNV-1">
          <mxGeometry x="990" y="320" width="120" height="120" as="geometry" />
        </mxCell>
        <mxCell id="wYmPSbE5QTE6Oiyz23wc-72" value="" style="edgeStyle=orthogonalEdgeStyle;rounded=0;orthogonalLoop=1;jettySize=auto;html=1;exitX=1;exitY=0.5;exitDx=0;exitDy=0;" edge="1" parent="WIyWlLk6GJQsqaUBKTNV-1" target="wYmPSbE5QTE6Oiyz23wc-74" source="wYmPSbE5QTE6Oiyz23wc-70">
          <mxGeometry relative="1" as="geometry">
            <mxPoint x="1114" y="350" as="sourcePoint" />
          </mxGeometry>
        </mxCell>
        <mxCell id="wYmPSbE5QTE6Oiyz23wc-73" value="No" style="edgeLabel;html=1;align=center;verticalAlign=middle;resizable=0;points=[];" vertex="1" connectable="0" parent="wYmPSbE5QTE6Oiyz23wc-72">
          <mxGeometry x="-0.25" y="2" relative="1" as="geometry">
            <mxPoint y="-8" as="offset" />
          </mxGeometry>
        </mxCell>
        <mxCell id="wYmPSbE5QTE6Oiyz23wc-74" value="Exit function, wait for next SBUS packet" style="whiteSpace=wrap;html=1;strokeWidth=2;" vertex="1" parent="WIyWlLk6GJQsqaUBKTNV-1">
          <mxGeometry x="1190" y="350" width="120" height="60" as="geometry" />
        </mxCell>
        <mxCell id="wYmPSbE5QTE6Oiyz23wc-81" value="" style="edgeStyle=orthogonalEdgeStyle;rounded=0;orthogonalLoop=1;jettySize=auto;html=1;" edge="1" parent="WIyWlLk6GJQsqaUBKTNV-1" source="wYmPSbE5QTE6Oiyz23wc-75" target="wYmPSbE5QTE6Oiyz23wc-80">
          <mxGeometry relative="1" as="geometry" />
        </mxCell>
        <mxCell id="wYmPSbE5QTE6Oiyz23wc-82" value="Yes" style="edgeLabel;html=1;align=center;verticalAlign=middle;resizable=0;points=[];" vertex="1" connectable="0" parent="wYmPSbE5QTE6Oiyz23wc-81">
          <mxGeometry x="-0.213" relative="1" as="geometry">
            <mxPoint as="offset" />
          </mxGeometry>
        </mxCell>
        <mxCell id="wYmPSbE5QTE6Oiyz23wc-75" value="Numbers valid?" style="rhombus;whiteSpace=wrap;html=1;strokeWidth=2;" vertex="1" parent="WIyWlLk6GJQsqaUBKTNV-1">
          <mxGeometry x="990" y="520" width="120" height="120" as="geometry" />
        </mxCell>
        <mxCell id="wYmPSbE5QTE6Oiyz23wc-77" value="" style="edgeStyle=orthogonalEdgeStyle;rounded=0;orthogonalLoop=1;jettySize=auto;html=1;exitX=1;exitY=0.5;exitDx=0;exitDy=0;" edge="1" parent="WIyWlLk6GJQsqaUBKTNV-1" target="wYmPSbE5QTE6Oiyz23wc-79" source="wYmPSbE5QTE6Oiyz23wc-75">
          <mxGeometry relative="1" as="geometry">
            <mxPoint x="1130" y="500" as="sourcePoint" />
          </mxGeometry>
        </mxCell>
        <mxCell id="wYmPSbE5QTE6Oiyz23wc-78" value="No" style="edgeLabel;html=1;align=center;verticalAlign=middle;resizable=0;points=[];" vertex="1" connectable="0" parent="wYmPSbE5QTE6Oiyz23wc-77">
          <mxGeometry x="-0.25" y="2" relative="1" as="geometry">
            <mxPoint y="-8" as="offset" />
          </mxGeometry>
        </mxCell>
        <mxCell id="wYmPSbE5QTE6Oiyz23wc-79" value="Exit function, wait for next SBUS packet" style="whiteSpace=wrap;html=1;strokeWidth=2;" vertex="1" parent="WIyWlLk6GJQsqaUBKTNV-1">
          <mxGeometry x="1190" y="550" width="120" height="60" as="geometry" />
        </mxCell>
        <mxCell id="wYmPSbE5QTE6Oiyz23wc-80" value="Log data" style="whiteSpace=wrap;html=1;strokeWidth=2;" vertex="1" parent="WIyWlLk6GJQsqaUBKTNV-1">
          <mxGeometry x="990" y="750" width="120" height="60" as="geometry" />
        </mxCell>
      </root>
    </mxGraphModel>
  </diagram>
</mxfile>
